<svg width="22" height="22" viewBox="0 0 22 22" fill="none" xmlns="http://www.w3.org/2000/svg">
<path d="M20.1667 9.99177V3.75844C20.1667 2.38344 19.58 1.83344 18.1225 1.83344H14.4192C12.9617 1.83344 12.375 2.38344 12.375 3.75844V9.99177C12.375 11.3668 12.9617 11.9168 14.4192 11.9168H18.1225C19.58 11.9168 20.1667 11.3668 20.1667 9.99177Z" stroke="#BBBBBB" stroke-width="1.5" stroke-linecap="round" stroke-linejoin="round"/>
<path d="M20.1667 18.2416V16.5916C20.1667 15.2166 19.58 14.6666 18.1225 14.6666H14.4192C12.9617 14.6666 12.375 15.2166 12.375 16.5916V18.2416C12.375 19.6166 12.9617 20.1666 14.4192 20.1666H18.1225C19.58 20.1666 20.1667 19.6166 20.1667 18.2416Z" stroke="#BBBBBB" stroke-width="1.5" stroke-linecap="round" stroke-linejoin="round"/>
<path d="M9.62504 12.0084V18.2418C9.62504 19.6168 9.03837 20.1668 7.58087 20.1668H3.87754C2.42004 20.1668 1.83337 19.6168 1.83337 18.2418V12.0084C1.83337 10.6334 2.42004 10.0834 3.87754 10.0834H7.58087C9.03837 10.0834 9.62504 10.6334 9.62504 12.0084Z" stroke="#BBBBBB" stroke-width="1.5" stroke-linecap="round" stroke-linejoin="round"/>
<path d="M9.62504 3.75844V5.40844C9.62504 6.78344 9.03837 7.33344 7.58087 7.33344H3.87754C2.42004 7.33344 1.83337 6.78344 1.83337 5.40844V3.75844C1.83337 2.38343 2.42004 1.83344 3.87754 1.83344H7.58087C9.03837 1.83344 9.62504 2.38343 9.62504 3.75844Z" stroke="#BBBBBB" stroke-width="1.5" stroke-linecap="round" stroke-linejoin="round"/>
</svg>
