<svg width="197" height="184" viewBox="0 0 197 184" fill="none" xmlns="http://www.w3.org/2000/svg">
<g clip-path="url(#clip0_102_3963)">
<path d="M92.0559 8.99292C94.5296 8.99292 96.5349 6.97979 96.5349 4.49646C96.5349 2.01313 94.5296 0 92.0559 0C89.5821 0 87.5768 2.01313 87.5768 4.49646C87.5768 6.97979 89.5821 8.99292 92.0559 8.99292Z" fill="white"/>
<path d="M64.6512 15.1284C67.8827 15.1284 70.5024 12.4985 70.5024 9.2545C70.5024 6.01044 67.8827 3.38062 64.6512 3.38062C61.4197 3.38062 58.8 6.01044 58.8 9.2545C58.8 12.4985 61.4197 15.1284 64.6512 15.1284Z" fill="white"/>
<path d="M41.2279 29.673C45.2172 29.673 48.4511 26.4265 48.4511 22.4217C48.4511 18.4169 45.2172 15.1704 41.2279 15.1704C37.2386 15.1704 34.0046 18.4169 34.0046 22.4217C34.0046 26.4265 37.2386 29.673 41.2279 29.673Z" fill="white"/>
<path d="M23.4419 50.9693C28.1864 50.9693 32.0326 47.1082 32.0326 42.3452C32.0326 37.5823 28.1864 33.7212 23.4419 33.7212C18.6974 33.7212 14.8512 37.5823 14.8512 42.3452C14.8512 47.1082 18.6974 50.9693 23.4419 50.9693Z" fill="white"/>
<path d="M12.9348 77.3736C18.4371 77.3736 22.8976 72.8957 22.8976 67.3721C22.8976 61.8484 18.4371 57.3706 12.9348 57.3706C7.43254 57.3706 2.97205 61.8484 2.97205 67.3721C2.97205 72.8957 7.43254 77.3736 12.9348 77.3736Z" fill="white"/>
<path d="M11.3349 106.972C17.595 106.972 22.6698 101.877 22.6698 95.593C22.6698 89.3086 17.595 84.2141 11.3349 84.2141C5.0748 84.2141 0 89.3086 0 95.593C0 101.877 5.0748 106.972 11.3349 106.972Z" fill="white"/>
<path d="M19.0512 134.716C26.0691 134.716 31.7582 129.005 31.7582 121.96C31.7582 114.915 26.0691 109.204 19.0512 109.204C12.0333 109.204 6.34424 114.915 6.34424 121.96C6.34424 129.005 12.0333 134.716 19.0512 134.716Z" fill="white"/>
<path d="M34.5907 157.904C42.3663 157.904 48.6697 151.576 48.6697 143.77C48.6697 135.964 42.3663 129.636 34.5907 129.636C26.815 129.636 20.5116 135.964 20.5116 143.77C20.5116 151.576 26.815 157.904 34.5907 157.904Z" fill="white"/>
<path d="M56.3163 174.881C64.8497 174.881 71.7674 167.936 71.7674 159.37C71.7674 150.803 64.8497 143.859 56.3163 143.859C47.7828 143.859 40.8651 150.803 40.8651 159.37C40.8651 167.936 47.7828 174.881 56.3163 174.881Z" fill="white"/>
<path d="M82.5814 184C91.8701 184 99.4 176.441 99.4 167.116C99.4 157.791 91.8701 150.232 82.5814 150.232C73.2928 150.232 65.7628 157.791 65.7628 167.116C65.7628 176.441 73.2928 184 82.5814 184Z" fill="white"/>
<path d="M115.623 183.601C126.427 183.601 135.186 174.808 135.186 163.962C135.186 153.116 126.427 144.323 115.623 144.323C104.819 144.323 96.0604 153.116 96.0604 163.962C96.0604 174.808 104.819 183.601 115.623 183.601Z" fill="white"/>
<path d="M148.47 172.123C160.032 172.123 169.405 162.714 169.405 151.107C169.405 139.5 160.032 130.091 148.47 130.091C136.908 130.091 127.535 139.5 127.535 151.107C127.535 162.714 136.908 172.123 148.47 172.123Z" fill="white"/>
<path d="M173.586 110.986C185.906 110.986 195.893 100.96 195.893 88.5928C195.893 76.2252 185.906 66.1992 173.586 66.1992C161.266 66.1992 151.279 76.2252 151.279 88.5928C151.279 100.96 161.266 110.986 173.586 110.986Z" fill="white"/>
<path d="M150.326 56.8481C163.401 56.8481 174 46.2075 174 33.0818C174 19.956 163.401 9.31543 150.326 9.31543C137.251 9.31543 126.651 19.956 126.651 33.0818C126.651 46.2075 137.251 56.8481 150.326 56.8481Z" fill="white"/>
</g>
<defs>
<clipPath id="clip0_102_3963">
<rect width="197" height="184" fill="white"/>
</clipPath>
</defs>
</svg>
